<?xml version="1.0" encoding="UTF-8" standalone="no"?>
<svg
   xmlns:dc="http://purl.org/dc/elements/1.1/"
   xmlns:cc="http://creativecommons.org/ns#"
   xmlns:rdf="http://www.w3.org/1999/02/22-rdf-syntax-ns#"
   xmlns:svg="http://www.w3.org/2000/svg"
   xmlns="http://www.w3.org/2000/svg"
   xmlns:sodipodi="http://sodipodi.sourceforge.net/DTD/sodipodi-0.dtd"
   xmlns:inkscape="http://www.inkscape.org/namespaces/inkscape"
   viewBox="0 0 80.9 80.9"
   id="svg2"
   version="1.1"
   inkscape:version="0.91 r13725"
   sodipodi:docname="WebAPI.svg">
  <metadata
     id="metadata27">
    <rdf:RDF>
      <cc:Work
         rdf:about="">
        <dc:format>image/svg+xml</dc:format>
        <dc:type
           rdf:resource="http://purl.org/dc/dcmitype/StillImage" />
        <dc:title></dc:title>
      </cc:Work>
    </rdf:RDF>
  </metadata>
  <sodipodi:namedview
     pagecolor="#ffffff"
     bordercolor="#666666"
     borderopacity="1"
     objecttolerance="10"
     gridtolerance="10"
     guidetolerance="10"
     inkscape:pageopacity="0"
     inkscape:pageshadow="2"
     inkscape:window-width="1536"
     inkscape:window-height="801"
     id="namedview25"
     showgrid="false"
     inkscape:zoom="5.8343634"
     inkscape:cx="24.613198"
     inkscape:cy="35.178716"
     inkscape:window-x="-8"
     inkscape:window-y="1042"
     inkscape:window-maximized="1"
     inkscape:current-layer="g4196" />
  <defs
     id="defs4">
    <style
       id="style6">.cls-1{fill:#84aff1;}.cls-2{fill:#3865ab;}.cls-3{fill:#fff;}.cls-4{fill:url(#linear-gradient);}</style>
    <linearGradient
       id="linear-gradient"
       x1="15.08"
       y1="38.4"
       x2="52.47"
       y2="38.4"
       gradientTransform="translate(-55.761619,-13.074401)"
       gradientUnits="userSpaceOnUse">
      <stop
         offset="0"
         stop-color="#f2cc0c"
         id="stop9" />
      <stop
         offset="1"
         stop-color="#ff9830"
         id="stop11" />
    </linearGradient>
  </defs>
  <ellipse
     style="opacity:1;fill:#3865ab;fill-opacity:1;stroke:none;stroke-width:1.00157475;stroke-miterlimit:4;stroke-dasharray:none;stroke-dashoffset:0;stroke-opacity:1"
     id="path4271"
     cx="40.456772"
     cy="40.455959"
     rx="32.393002"
     ry="32.326" />
  <path
     class="cls-1"
     d="M 40.45,80.9 A 40.45,40.45 0 1 1 80.9,40.45 40.5,40.5 0 0 1 40.45,80.9 Z M 40.45,4 A 36.45,36.45 0 1 0 76.9,40.45 36.49,36.49 0 0 0 40.45,4 Z"
     id="path15"
     inkscape:connector-curvature="0"
     style="fill:#84aff1" />
  <g
     id="g4196"
     transform="translate(0.21939935,0.03572482)">
    <g
       style="fill:#000000"
       id="g821"
       transform="matrix(6.5905124,0,0,6.5905124,-775.4525,-31.648487)" />
    <g
       style="fill:#000000"
       id="g823"
       transform="matrix(6.5905124,0,0,6.5905124,-775.4525,-31.648487)" />
    <g
       style="fill:#000000"
       id="g825"
       transform="matrix(6.5905124,0,0,6.5905124,-775.4525,-31.648487)" />
    <g
       style="fill:#000000"
       id="g827"
       transform="matrix(6.5905124,0,0,6.5905124,-775.4525,-31.648487)" />
    <g
       style="fill:#000000"
       id="g829"
       transform="matrix(6.5905124,0,0,6.5905124,-775.4525,-31.648487)" />
    <g
       style="fill:#000000"
       id="g831"
       transform="matrix(6.5905124,0,0,6.5905124,-775.4525,-31.648487)" />
    <g
       style="fill:#000000"
       id="g833"
       transform="matrix(6.5905124,0,0,6.5905124,-775.4525,-31.648487)" />
    <g
       style="fill:#000000"
       id="g835"
       transform="matrix(6.5905124,0,0,6.5905124,-775.4525,-31.648487)" />
    <g
       style="fill:#000000"
       id="g837"
       transform="matrix(6.5905124,0,0,6.5905124,-775.4525,-31.648487)" />
    <g
       style="fill:#000000"
       id="g839"
       transform="matrix(6.5905124,0,0,6.5905124,-775.4525,-31.648487)" />
    <g
       style="fill:#000000"
       id="g841"
       transform="matrix(6.5905124,0,0,6.5905124,-775.4525,-31.648487)" />
    <g
       style="fill:#000000"
       id="g843"
       transform="matrix(6.5905124,0,0,6.5905124,-775.4525,-31.648487)" />
    <g
       style="fill:#000000"
       id="g845"
       transform="matrix(6.5905124,0,0,6.5905124,-775.4525,-31.648487)" />
    <g
       style="fill:#000000"
       id="g847"
       transform="matrix(6.5905124,0,0,6.5905124,-775.4525,-31.648487)" />
    <g
       style="fill:#000000"
       id="g849"
       transform="matrix(6.5905124,0,0,6.5905124,-775.4525,-31.648487)" />
    <text
       xml:space="preserve"
       style="font-style:normal;font-variant:normal;font-weight:normal;font-stretch:normal;font-size:32px;line-height:125%;font-family:sans-serif;-inkscape-font-specification:'sans-serif, Normal';text-align:center;letter-spacing:0px;word-spacing:0px;writing-mode:lr-tb;text-anchor:middle;fill:#000000;fill-opacity:1;stroke:none;stroke-width:1px;stroke-linecap:butt;stroke-linejoin:miter;stroke-opacity:1"
       x="-512.77777"
       y="196.14613"
       id="text4267"
       sodipodi:linespacing="125%"><tspan
         sodipodi:role="line"
         id="tspan4269"
         x="-512.77777"
         y="196.14613" /></text>
    <g
       transform="matrix(0.81911606,0,0,0.81911606,16.764643,14.239653)"
       id="g3"
       style="fill:#f2cc0c;fill-opacity:1">
      <g
         id="g5"
         style="fill:#f2cc0c;fill-opacity:1">
        <path
           inkscape:connector-curvature="0"
           style="fill:#f2cc0c;fill-opacity:1"
           d="m 48.077,25.553 c 0.021,-0.304 0.03,-0.604 0.03,-0.897 0,-8.459 -6.882,-15.341 -15.34,-15.341 -6.084,0 -11.598,3.611 -14.032,9.174 -0.029,0.042 -0.123,0.106 -0.161,0.117 -3.776,0.395 -7.116,2.797 -8.713,6.266 C 9.815,24.96 9.634,25.108 9.545,25.135 3.925,26.369 0,31.231 0,36.96 0,43.652 5.341,48.895 12.159,48.895 l 34.448,0 c 6.397,0 11.603,-5.307 11.603,-11.83 0,-5.901 -4.427,-10.787 -10.133,-11.512 z"
           id="path7"
           sodipodi:nodetypes="cssccccssssc" />
      </g>
    </g>
    <text
       xml:space="preserve"
       style="font-style:normal;font-variant:normal;font-weight:bold;font-stretch:normal;font-size:17.89489937px;line-height:125%;font-family:Ebrima;-inkscape-font-specification:'Ebrima, Bold';text-align:center;letter-spacing:0px;word-spacing:0px;writing-mode:lr-tb;text-anchor:middle;fill:#3865ab;fill-opacity:1;stroke:none;stroke-width:1px;stroke-linecap:butt;stroke-linejoin:miter;stroke-opacity:1"
       x="40.605026"
       y="46.182144"
       id="text4263"
       sodipodi:linespacing="125%"><tspan
         sodipodi:role="line"
         id="tspan4265"
         x="40.605026"
         y="46.182144">{ }</tspan></text>
  </g>
</svg>
