<?xml version="1.0" encoding="UTF-8" standalone="no"?>
<!-- Generator: Adobe Illustrator 18.0.0, SVG Export Plug-In . SVG Version: 6.00 Build 0)  -->

<svg
   xmlns:dc="http://purl.org/dc/elements/1.1/"
   xmlns:cc="http://creativecommons.org/ns#"
   xmlns:rdf="http://www.w3.org/1999/02/22-rdf-syntax-ns#"
   xmlns:svg="http://www.w3.org/2000/svg"
   xmlns="http://www.w3.org/2000/svg"
   xmlns:sodipodi="http://sodipodi.sourceforge.net/DTD/sodipodi-0.dtd"
   xmlns:inkscape="http://www.inkscape.org/namespaces/inkscape"
   version="1.1"
   id="GraphQL_Logo"
   x="0px"
   y="0px"
   viewBox="0 0 400 400"
   enable-background="new 0 0 400 400"
   xml:space="preserve"
   inkscape:version="0.91 r13725"
   sodipodi:docname="WebAPI.svg"><metadata
     id="metadata75"><rdf:RDF><cc:Work
         rdf:about=""><dc:format>image/svg+xml</dc:format><dc:type
           rdf:resource="http://purl.org/dc/dcmitype/StillImage" /></cc:Work></rdf:RDF></metadata><defs
     id="defs73" /><sodipodi:namedview
     pagecolor="#ffffff"
     bordercolor="#666666"
     borderopacity="1"
     objecttolerance="10"
     gridtolerance="10"
     guidetolerance="10"
     inkscape:pageopacity="0"
     inkscape:pageshadow="2"
     inkscape:window-width="1536"
     inkscape:window-height="801"
     id="namedview71"
     showgrid="false"
     inkscape:zoom="0.417193"
     inkscape:cx="-554.49489"
     inkscape:cy="130.03034"
     inkscape:window-x="-8"
     inkscape:window-y="1042"
     inkscape:window-maximized="1"
     inkscape:current-layer="GraphQL_Logo" /><circle
     style="opacity:1;fill:#1f77b4;fill-opacity:0.94117647;stroke:none;stroke-width:1.00157475;stroke-miterlimit:4;stroke-dasharray:none;stroke-dashoffset:0;stroke-opacity:1"
     id="path4271"
     cx="199.34566"
     cy="200.45207"
     r="198.34944" /><g
     style="fill:#000000"
     id="g821"
     transform="matrix(6.5905124,0,0,6.5905124,8.1831356,-8.7660179)" /><g
     style="fill:#000000"
     id="g823"
     transform="matrix(6.5905124,0,0,6.5905124,8.1831356,-8.7660179)" /><g
     style="fill:#000000"
     id="g825"
     transform="matrix(6.5905124,0,0,6.5905124,8.1831356,-8.7660179)" /><g
     style="fill:#000000"
     id="g827"
     transform="matrix(6.5905124,0,0,6.5905124,8.1831356,-8.7660179)" /><g
     style="fill:#000000"
     id="g829"
     transform="matrix(6.5905124,0,0,6.5905124,8.1831356,-8.7660179)" /><g
     style="fill:#000000"
     id="g831"
     transform="matrix(6.5905124,0,0,6.5905124,8.1831356,-8.7660179)" /><g
     style="fill:#000000"
     id="g833"
     transform="matrix(6.5905124,0,0,6.5905124,8.1831356,-8.7660179)" /><g
     style="fill:#000000"
     id="g835"
     transform="matrix(6.5905124,0,0,6.5905124,8.1831356,-8.7660179)" /><g
     style="fill:#000000"
     id="g837"
     transform="matrix(6.5905124,0,0,6.5905124,8.1831356,-8.7660179)" /><g
     style="fill:#000000"
     id="g839"
     transform="matrix(6.5905124,0,0,6.5905124,8.1831356,-8.7660179)" /><g
     style="fill:#000000"
     id="g841"
     transform="matrix(6.5905124,0,0,6.5905124,8.1831356,-8.7660179)" /><g
     style="fill:#000000"
     id="g843"
     transform="matrix(6.5905124,0,0,6.5905124,8.1831356,-8.7660179)" /><g
     style="fill:#000000"
     id="g845"
     transform="matrix(6.5905124,0,0,6.5905124,8.1831356,-8.7660179)" /><g
     style="fill:#000000"
     id="g847"
     transform="matrix(6.5905124,0,0,6.5905124,8.1831356,-8.7660179)" /><g
     style="fill:#000000"
     id="g849"
     transform="matrix(6.5905124,0,0,6.5905124,8.1831356,-8.7660179)" /><text
     xml:space="preserve"
     style="font-style:normal;font-variant:normal;font-weight:normal;font-stretch:normal;font-size:32px;line-height:125%;font-family:sans-serif;-inkscape-font-specification:'sans-serif, Normal';text-align:center;letter-spacing:0px;word-spacing:0px;writing-mode:lr-tb;text-anchor:middle;fill:#000000;fill-opacity:1;stroke:none;stroke-width:1px;stroke-linecap:butt;stroke-linejoin:miter;stroke-opacity:1"
     x="270.85785"
     y="219.02859"
     id="text4267"
     sodipodi:linespacing="125%"><tspan
       sodipodi:role="line"
       id="tspan4269"
       x="276.48285"
       y="219.02859" /></text>
<g
     transform="matrix(5.1495432,0,0,5.1495432,44.876538,24.207919)"
     id="g3"
     style="fill:#ffffff"><g
       id="g5"
       style="fill:#ffffff"><path
         inkscape:connector-curvature="0"
         style="fill:#ffffff"
         d="m 48.077,25.553 c 0.021,-0.304 0.03,-0.604 0.03,-0.897 0,-8.459 -6.882,-15.341 -15.34,-15.341 -6.084,0 -11.598,3.611 -14.032,9.174 -0.029,0.042 -0.123,0.106 -0.161,0.117 -3.776,0.395 -7.116,2.797 -8.713,6.266 C 9.815,24.96 9.634,25.108 9.545,25.135 3.925,26.369 0,31.231 0,36.96 0,43.652 5.341,48.895 12.159,48.895 l 34.448,0 c 6.397,0 11.603,-5.307 11.603,-11.83 0,-5.901 -4.427,-10.787 -10.133,-11.512 z"
         id="path7"
         sodipodi:nodetypes="cssccccssssc" /></g></g><text
     xml:space="preserve"
     style="font-style:normal;font-variant:normal;font-weight:bold;font-stretch:normal;font-size:112.5px;line-height:125%;font-family:Ebrima;-inkscape-font-specification:'Ebrima, Bold';text-align:center;letter-spacing:0px;word-spacing:0px;writing-mode:lr-tb;text-anchor:middle;fill:#185b8b;fill-opacity:0.94117647;stroke:none;stroke-width:1px;stroke-linecap:butt;stroke-linejoin:miter;stroke-opacity:1;"
     x="194.75398"
     y="225.02106"
     id="text4263"
     sodipodi:linespacing="125%"><tspan
       sodipodi:role="line"
       id="tspan4265"
       x="194.75398"
       y="225.02106">{ }</tspan></text>
</svg>